<mxfile host="app.diagrams.net" modified="2024-04-22T17:00:30.719Z" agent="Mozilla/5.0 (Windows NT 10.0; Win64; x64) AppleWebKit/537.36 (KHTML, like Gecko) Chrome/124.0.0.0 Safari/537.36 Edg/124.0.0.0" etag="GWJCMFgDsZSBxPT-DyYF" version="24.2.7" type="device">
  <diagram name="Page-1" id="dLMWYPuGLznFX2xjgWWH">
    <mxGraphModel dx="401" dy="231" grid="1" gridSize="10" guides="1" tooltips="1" connect="1" arrows="1" fold="1" page="1" pageScale="1" pageWidth="850" pageHeight="1100" math="0" shadow="0">
      <root>
        <mxCell id="0" />
        <mxCell id="1" parent="0" />
        <mxCell id="XwcN96e52QGSWOuwMklb-1" value="" style="endArrow=none;dashed=1;html=1;dashPattern=1 3;strokeWidth=2;rounded=0;exitX=1;exitY=1;exitDx=0;exitDy=0;fillColor=#d5e8d4;strokeColor=#82b366;movable=1;resizable=1;rotatable=1;deletable=1;editable=1;locked=0;connectable=1;" parent="1" edge="1">
          <mxGeometry width="50" height="50" relative="1" as="geometry">
            <mxPoint x="280" y="1290" as="sourcePoint" />
            <mxPoint x="1159.915" y="1290" as="targetPoint" />
          </mxGeometry>
        </mxCell>
        <mxCell id="K_93MQcQCd8FGHe1F_AO-1" value="" style="endArrow=none;dashed=1;html=1;dashPattern=1 3;strokeWidth=2;rounded=0;exitX=1;exitY=1;exitDx=0;exitDy=0;fillColor=#dae8fc;strokeColor=#6c8ebf;movable=1;resizable=1;rotatable=1;deletable=1;editable=1;locked=0;connectable=1;" parent="1" edge="1">
          <mxGeometry width="50" height="50" relative="1" as="geometry">
            <mxPoint x="280" y="1387" as="sourcePoint" />
            <mxPoint x="1160" y="1387" as="targetPoint" />
          </mxGeometry>
        </mxCell>
        <mxCell id="K_93MQcQCd8FGHe1F_AO-2" value="" style="endArrow=none;dashed=1;html=1;dashPattern=1 3;strokeWidth=2;rounded=0;exitX=1;exitY=1;exitDx=0;exitDy=0;fillColor=#fff2cc;strokeColor=#d6b656;movable=1;resizable=1;rotatable=1;deletable=1;editable=1;locked=0;connectable=1;" parent="1" edge="1">
          <mxGeometry width="50" height="50" relative="1" as="geometry">
            <mxPoint x="280" y="1340" as="sourcePoint" />
            <mxPoint x="1159.915" y="1340" as="targetPoint" />
          </mxGeometry>
        </mxCell>
        <mxCell id="K_93MQcQCd8FGHe1F_AO-3" value="&lt;font style=&quot;font-size: 20px;&quot;&gt;:FMU 1&lt;/font&gt;" style="shape=umlLifeline;perimeter=lifelinePerimeter;whiteSpace=wrap;html=1;container=1;dropTarget=0;collapsible=0;recursiveResize=0;outlineConnect=0;portConstraint=eastwest;newEdgeStyle={&quot;curved&quot;:0,&quot;rounded&quot;:0};size=80;" parent="1" vertex="1">
          <mxGeometry x="319.17" y="1040" width="240.83" height="480" as="geometry" />
        </mxCell>
        <mxCell id="K_93MQcQCd8FGHe1F_AO-4" value="&lt;font style=&quot;font-size: 20px;&quot;&gt;:FMU 2&lt;/font&gt;" style="shape=umlLifeline;perimeter=lifelinePerimeter;whiteSpace=wrap;html=1;container=1;dropTarget=0;collapsible=0;recursiveResize=0;outlineConnect=0;portConstraint=eastwest;newEdgeStyle={&quot;curved&quot;:0,&quot;rounded&quot;:0};size=80;" parent="1" vertex="1">
          <mxGeometry x="1040" y="1040" width="240.83" height="480" as="geometry" />
        </mxCell>
        <mxCell id="K_93MQcQCd8FGHe1F_AO-5" value="&lt;font style=&quot;font-size: 20px;&quot;&gt;:Bus Simulation&lt;/font&gt;" style="shape=umlLifeline;perimeter=lifelinePerimeter;whiteSpace=wrap;html=1;container=1;dropTarget=0;collapsible=0;recursiveResize=0;outlineConnect=0;portConstraint=eastwest;newEdgeStyle={&quot;curved&quot;:0,&quot;rounded&quot;:0};size=80;" parent="1" vertex="1">
          <mxGeometry x="679.59" y="1040" width="240.83" height="480" as="geometry" />
        </mxCell>
        <mxCell id="K_93MQcQCd8FGHe1F_AO-6" value="" style="html=1;points=[[0,0,0,0,5],[0,1,0,0,-5],[1,0,0,0,5],[1,1,0,0,-5]];perimeter=orthogonalPerimeter;outlineConnect=0;targetShapes=umlLifeline;portConstraint=eastwest;newEdgeStyle={&quot;curved&quot;:0,&quot;rounded&quot;:0};fillColor=default;" parent="K_93MQcQCd8FGHe1F_AO-5" vertex="1">
          <mxGeometry x="115.41" y="260" width="10" height="100" as="geometry" />
        </mxCell>
        <mxCell id="K_93MQcQCd8FGHe1F_AO-7" value="&lt;font style=&quot;font-size: 18px;&quot;&gt;Transmit(Slot ID = 6)&lt;/font&gt;" style="html=1;verticalAlign=bottom;endArrow=block;curved=0;rounded=0;" parent="1" edge="1">
          <mxGeometry width="80" relative="1" as="geometry">
            <mxPoint x="439.99785714285713" y="1325" as="sourcePoint" />
            <mxPoint x="795" y="1325" as="targetPoint" />
            <Array as="points" />
          </mxGeometry>
        </mxCell>
        <mxCell id="K_93MQcQCd8FGHe1F_AO-8" value="&lt;font style=&quot;font-size: 18px;&quot;&gt;Transmit&lt;/font&gt;&lt;span style=&quot;font-size: 18px;&quot;&gt;(Slot ID = 6)&lt;/span&gt;" style="html=1;verticalAlign=bottom;endArrow=block;curved=0;rounded=0;" parent="1" edge="1">
          <mxGeometry width="80" relative="1" as="geometry">
            <mxPoint x="805" y="1386" as="sourcePoint" />
            <mxPoint x="1160" y="1386" as="targetPoint" />
          </mxGeometry>
        </mxCell>
        <mxCell id="K_93MQcQCd8FGHe1F_AO-10" value="Cycle" style="rounded=0;whiteSpace=wrap;html=1;fillColor=#e1d5e7;strokeColor=#9673a6;horizontal=0;" parent="1" vertex="1">
          <mxGeometry x="160" y="1160" width="40" height="360" as="geometry" />
        </mxCell>
        <mxCell id="K_93MQcQCd8FGHe1F_AO-11" value="Static segment" style="rounded=0;whiteSpace=wrap;html=1;fillColor=#dae8fc;strokeColor=#6c8ebf;horizontal=0;" parent="1" vertex="1">
          <mxGeometry x="199" y="1160" width="41" height="360" as="geometry" />
        </mxCell>
        <mxCell id="K_93MQcQCd8FGHe1F_AO-12" value="5" style="rounded=0;whiteSpace=wrap;html=1;fillColor=#f8cecc;strokeColor=#b85450;horizontal=0;" parent="1" vertex="1">
          <mxGeometry x="240" y="1180" width="40" height="110" as="geometry" />
        </mxCell>
        <mxCell id="K_93MQcQCd8FGHe1F_AO-13" value="6" style="rounded=0;whiteSpace=wrap;html=1;fillColor=#f8cecc;strokeColor=#b85450;horizontal=0;" parent="1" vertex="1">
          <mxGeometry x="240" y="1290" width="40" height="110" as="geometry" />
        </mxCell>
        <mxCell id="K_93MQcQCd8FGHe1F_AO-14" value="7" style="rounded=0;whiteSpace=wrap;html=1;fillColor=#f8cecc;strokeColor=#b85450;horizontal=0;" parent="1" vertex="1">
          <mxGeometry x="240" y="1400" width="40" height="100" as="geometry" />
        </mxCell>
        <mxCell id="K_93MQcQCd8FGHe1F_AO-17" value="" style="ellipse;whiteSpace=wrap;html=1;align=center;aspect=fixed;fillColor=none;strokeColor=none;resizable=0;perimeter=centerPerimeter;rotatable=0;allowArrows=0;points=[];outlineConnect=1;" parent="1" vertex="1">
          <mxGeometry x="860" y="1360" width="10" height="10" as="geometry" />
        </mxCell>
        <mxCell id="UPMafHE0D0PMayq6ZMki-1" value="Slot Counter" style="text;html=1;align=center;verticalAlign=middle;whiteSpace=wrap;rounded=0;rotation=-90;direction=south;fontSize=13;" parent="1" vertex="1">
          <mxGeometry x="219" y="1100" width="82" height="35.5" as="geometry" />
        </mxCell>
        <mxCell id="UPMafHE0D0PMayq6ZMki-4" value="..." style="rounded=0;whiteSpace=wrap;html=1;fillColor=#f8cecc;strokeColor=#b85450;horizontal=0;" parent="1" vertex="1">
          <mxGeometry x="240" y="1160" width="40" height="20" as="geometry" />
        </mxCell>
        <mxCell id="UPMafHE0D0PMayq6ZMki-5" value="..." style="rounded=0;whiteSpace=wrap;html=1;fillColor=#f8cecc;strokeColor=#b85450;horizontal=0;" parent="1" vertex="1">
          <mxGeometry x="240" y="1500" width="40" height="20" as="geometry" />
        </mxCell>
        <mxCell id="UPMafHE0D0PMayq6ZMki-12" value="" style="shape=curlyBracket;whiteSpace=wrap;html=1;rounded=1;flipH=1;labelPosition=right;verticalLabelPosition=middle;align=left;verticalAlign=middle;" parent="1" vertex="1">
          <mxGeometry x="283" y="1293" width="11" height="44" as="geometry" />
        </mxCell>
        <mxCell id="UPMafHE0D0PMayq6ZMki-13" value="&lt;span style=&quot;font-size: 11px;&quot;&gt;ActionPoint Offset&lt;/span&gt;" style="text;html=1;align=center;verticalAlign=middle;whiteSpace=wrap;rounded=0;fontSize=11;" parent="1" vertex="1">
          <mxGeometry x="275" y="1308.5" width="130" height="13" as="geometry" />
        </mxCell>
        <mxCell id="UPMafHE0D0PMayq6ZMki-14" style="edgeStyle=orthogonalEdgeStyle;rounded=0;orthogonalLoop=1;jettySize=auto;html=1;exitX=0.5;exitY=1;exitDx=0;exitDy=0;" parent="1" source="UPMafHE0D0PMayq6ZMki-13" target="UPMafHE0D0PMayq6ZMki-13" edge="1">
          <mxGeometry relative="1" as="geometry" />
        </mxCell>
        <mxCell id="XwcN96e52QGSWOuwMklb-5" value="First valid point in time to provide Transmit operation" style="text;html=1;strokeColor=none;fillColor=none;align=left;verticalAlign=middle;whiteSpace=wrap;rounded=0;fontSize=11;" parent="1" vertex="1">
          <mxGeometry x="1164" y="1265" width="146" height="50" as="geometry" />
        </mxCell>
        <mxCell id="XwcN96e52QGSWOuwMklb-6" value="Last valid point in time to provide Transmit operation" style="text;html=1;strokeColor=none;fillColor=none;align=left;verticalAlign=middle;whiteSpace=wrap;rounded=0;fontSize=11;" parent="1" vertex="1">
          <mxGeometry x="1164" y="1315" width="146" height="50" as="geometry" />
        </mxCell>
        <mxCell id="XwcN96e52QGSWOuwMklb-7" value="Reception of provided Transmit operation" style="text;html=1;strokeColor=none;fillColor=none;align=left;verticalAlign=middle;whiteSpace=wrap;rounded=0;fontSize=11;" parent="1" vertex="1">
          <mxGeometry x="1164" y="1361" width="146" height="50" as="geometry" />
        </mxCell>
        <mxCell id="4suS0b0Y0LdCVZtt6Jae-1" value="&lt;font style=&quot;font-size: 18px;&quot;&gt;Confirm(Slot ID = 6)&lt;/font&gt;" style="html=1;verticalAlign=bottom;endArrow=none;curved=0;rounded=0;startArrow=block;startFill=1;endFill=0;" edge="1" parent="1">
          <mxGeometry width="80" relative="1" as="geometry">
            <mxPoint x="439.99785714285713" y="1386" as="sourcePoint" />
            <mxPoint x="795" y="1386" as="targetPoint" />
            <Array as="points" />
          </mxGeometry>
        </mxCell>
      </root>
    </mxGraphModel>
  </diagram>
</mxfile>
